<mxfile host="app.diagrams.net" agent="Mozilla/5.0 (Windows NT 10.0; Win64; x64) AppleWebKit/537.36 (KHTML, like Gecko) Chrome/129.0.0.0 Safari/537.36" version="24.7.17">
  <diagram name="Página-1" id="0yyZf2vExyStb92xReoz">
    <mxGraphModel dx="1434" dy="780" grid="1" gridSize="10" guides="1" tooltips="1" connect="1" arrows="1" fold="1" page="1" pageScale="1" pageWidth="827" pageHeight="1169" math="0" shadow="0">
      <root>
        <mxCell id="0" />
        <mxCell id="1" parent="0" />
        <mxCell id="PGkATcvvUGbWVfut-UY--2" value="Vendedor" style="shape=umlActor;verticalLabelPosition=bottom;verticalAlign=top;html=1;" parent="1" vertex="1">
          <mxGeometry x="1150" y="445" width="30" height="60" as="geometry" />
        </mxCell>
        <mxCell id="PGkATcvvUGbWVfut-UY--23" value="" style="endArrow=none;html=1;rounded=0;entryX=0.5;entryY=0.5;entryDx=0;entryDy=0;entryPerimeter=0;exitX=1;exitY=0.5;exitDx=0;exitDy=0;" parent="1" source="PGkATcvvUGbWVfut-UY--11" target="PGkATcvvUGbWVfut-UY--2" edge="1">
          <mxGeometry relative="1" as="geometry">
            <mxPoint x="520" y="250" as="sourcePoint" />
            <mxPoint x="700" y="330" as="targetPoint" />
          </mxGeometry>
        </mxCell>
        <mxCell id="PGkATcvvUGbWVfut-UY--25" value="" style="endArrow=none;html=1;rounded=0;entryX=0.5;entryY=0.5;entryDx=0;entryDy=0;entryPerimeter=0;exitX=1;exitY=0.5;exitDx=0;exitDy=0;" parent="1" source="PGkATcvvUGbWVfut-UY--17" target="PGkATcvvUGbWVfut-UY--2" edge="1">
          <mxGeometry relative="1" as="geometry">
            <mxPoint x="530" y="270" as="sourcePoint" />
            <mxPoint x="700" y="340" as="targetPoint" />
          </mxGeometry>
        </mxCell>
        <mxCell id="PGkATcvvUGbWVfut-UY--27" value="" style="endArrow=none;html=1;rounded=0;exitX=1;exitY=0.5;exitDx=0;exitDy=0;entryX=0.5;entryY=0.5;entryDx=0;entryDy=0;entryPerimeter=0;" parent="1" source="PGkATcvvUGbWVfut-UY--26" target="PGkATcvvUGbWVfut-UY--2" edge="1">
          <mxGeometry relative="1" as="geometry">
            <mxPoint x="520" y="424.5" as="sourcePoint" />
            <mxPoint x="700" y="330" as="targetPoint" />
          </mxGeometry>
        </mxCell>
        <mxCell id="PGkATcvvUGbWVfut-UY--29" value="" style="endArrow=none;html=1;rounded=0;entryX=0.5;entryY=0.5;entryDx=0;entryDy=0;entryPerimeter=0;exitX=1;exitY=0.5;exitDx=0;exitDy=0;" parent="1" source="PGkATcvvUGbWVfut-UY--28" target="PGkATcvvUGbWVfut-UY--2" edge="1">
          <mxGeometry relative="1" as="geometry">
            <mxPoint x="520" y="505" as="sourcePoint" />
            <mxPoint x="700" y="410" as="targetPoint" />
          </mxGeometry>
        </mxCell>
        <mxCell id="PGkATcvvUGbWVfut-UY--31" value="" style="endArrow=none;html=1;rounded=0;entryX=0.5;entryY=0.5;entryDx=0;entryDy=0;entryPerimeter=0;exitX=1;exitY=0.5;exitDx=0;exitDy=0;" parent="1" source="PGkATcvvUGbWVfut-UY--30" target="PGkATcvvUGbWVfut-UY--2" edge="1">
          <mxGeometry relative="1" as="geometry">
            <mxPoint x="520" y="605" as="sourcePoint" />
            <mxPoint x="705" y="430" as="targetPoint" />
          </mxGeometry>
        </mxCell>
        <mxCell id="PGkATcvvUGbWVfut-UY--37" value="" style="swimlane;startSize=0;" parent="1" vertex="1">
          <mxGeometry x="150" y="180" width="700" height="590" as="geometry" />
        </mxCell>
        <mxCell id="PGkATcvvUGbWVfut-UY--32" value="SISTEMA" style="text;html=1;align=center;verticalAlign=middle;whiteSpace=wrap;rounded=0;" parent="PGkATcvvUGbWVfut-UY--37" vertex="1">
          <mxGeometry x="4" width="60" height="30" as="geometry" />
        </mxCell>
        <mxCell id="PGkATcvvUGbWVfut-UY--11" value="Adicionar produtos" style="ellipse;whiteSpace=wrap;html=1;" parent="PGkATcvvUGbWVfut-UY--37" vertex="1">
          <mxGeometry x="530" y="40" width="140" height="70" as="geometry" />
        </mxCell>
        <mxCell id="PGkATcvvUGbWVfut-UY--22" value="" style="text;strokeColor=none;fillColor=none;align=left;verticalAlign=middle;spacingTop=-1;spacingLeft=4;spacingRight=4;rotatable=0;labelPosition=right;points=[];portConstraint=eastwest;" parent="PGkATcvvUGbWVfut-UY--37" vertex="1">
          <mxGeometry x="680" y="260" width="20" height="14" as="geometry" />
        </mxCell>
        <mxCell id="U0aSdUmngwH33HCEDwY0-1" value="Verificar se dados estão corretos&amp;nbsp;" style="ellipse;whiteSpace=wrap;html=1;" parent="PGkATcvvUGbWVfut-UY--37" vertex="1">
          <mxGeometry x="20" y="70" width="140" height="70" as="geometry" />
        </mxCell>
        <mxCell id="PGkATcvvUGbWVfut-UY--17" value="Remover produtos" style="ellipse;whiteSpace=wrap;html=1;" parent="PGkATcvvUGbWVfut-UY--37" vertex="1">
          <mxGeometry x="530" y="400" width="140" height="70" as="geometry" />
        </mxCell>
        <mxCell id="PGkATcvvUGbWVfut-UY--26" value="Editar dados de produtos" style="ellipse;whiteSpace=wrap;html=1;" parent="PGkATcvvUGbWVfut-UY--37" vertex="1">
          <mxGeometry x="530" y="130" width="140" height="70" as="geometry" />
        </mxCell>
        <mxCell id="U0aSdUmngwH33HCEDwY0-5" value="&amp;lt;&amp;lt;include&amp;gt;&amp;gt;" style="html=1;verticalAlign=bottom;labelBackgroundColor=none;endArrow=open;endFill=0;dashed=1;rounded=0;entryX=1;entryY=0;entryDx=0;entryDy=0;" parent="PGkATcvvUGbWVfut-UY--37" target="U0aSdUmngwH33HCEDwY0-1" edge="1">
          <mxGeometry width="160" relative="1" as="geometry">
            <mxPoint x="525" y="80" as="sourcePoint" />
            <mxPoint x="675" y="70" as="targetPoint" />
          </mxGeometry>
        </mxCell>
        <mxCell id="U0aSdUmngwH33HCEDwY0-6" value="&amp;lt;&amp;lt;include&amp;gt;&amp;gt;" style="html=1;verticalAlign=bottom;labelBackgroundColor=none;endArrow=open;endFill=0;dashed=1;rounded=0;entryX=1;entryY=0.5;entryDx=0;entryDy=0;" parent="PGkATcvvUGbWVfut-UY--37" target="U0aSdUmngwH33HCEDwY0-1" edge="1">
          <mxGeometry width="160" relative="1" as="geometry">
            <mxPoint x="535" y="150" as="sourcePoint" />
            <mxPoint x="460" y="185" as="targetPoint" />
          </mxGeometry>
        </mxCell>
        <mxCell id="PGkATcvvUGbWVfut-UY--28" value="Cadastrar dados dos clientes" style="ellipse;whiteSpace=wrap;html=1;" parent="PGkATcvvUGbWVfut-UY--37" vertex="1">
          <mxGeometry x="530" y="220" width="140" height="70" as="geometry" />
        </mxCell>
        <mxCell id="U0aSdUmngwH33HCEDwY0-9" value="&amp;lt;&amp;lt;include&amp;gt;&amp;gt;" style="html=1;verticalAlign=bottom;labelBackgroundColor=none;endArrow=open;endFill=0;dashed=1;rounded=0;entryX=0.936;entryY=0.729;entryDx=0;entryDy=0;entryPerimeter=0;exitX=0;exitY=0.5;exitDx=0;exitDy=0;" parent="PGkATcvvUGbWVfut-UY--37" source="PGkATcvvUGbWVfut-UY--28" target="U0aSdUmngwH33HCEDwY0-1" edge="1">
          <mxGeometry width="160" relative="1" as="geometry">
            <mxPoint x="545" y="160" as="sourcePoint" />
            <mxPoint x="430" y="150" as="targetPoint" />
          </mxGeometry>
        </mxCell>
        <mxCell id="PGkATcvvUGbWVfut-UY--30" value="Consultar estoque" style="ellipse;whiteSpace=wrap;html=1;" parent="PGkATcvvUGbWVfut-UY--37" vertex="1">
          <mxGeometry x="530" y="490" width="140" height="70" as="geometry" />
        </mxCell>
        <mxCell id="PGkATcvvUGbWVfut-UY--38" value="Armazenar pedidos realizados pelo cliente" style="ellipse;whiteSpace=wrap;html=1;" parent="PGkATcvvUGbWVfut-UY--37" vertex="1">
          <mxGeometry x="530" y="310" width="140" height="70" as="geometry" />
        </mxCell>
        <mxCell id="U0aSdUmngwH33HCEDwY0-10" value="&amp;lt;&amp;lt;include&amp;gt;&amp;gt;" style="html=1;verticalAlign=bottom;labelBackgroundColor=none;endArrow=open;endFill=0;dashed=1;rounded=0;exitX=0;exitY=0.5;exitDx=0;exitDy=0;entryX=1;entryY=1;entryDx=0;entryDy=0;" parent="PGkATcvvUGbWVfut-UY--37" target="U0aSdUmngwH33HCEDwY0-1" edge="1">
          <mxGeometry x="-0.0644" y="-6" width="160" relative="1" as="geometry">
            <mxPoint x="530" y="346" as="sourcePoint" />
            <mxPoint x="404" y="240" as="targetPoint" />
            <mxPoint as="offset" />
          </mxGeometry>
        </mxCell>
        <mxCell id="PGkATcvvUGbWVfut-UY--39" value="" style="endArrow=none;html=1;rounded=0;entryX=0.5;entryY=0.5;entryDx=0;entryDy=0;entryPerimeter=0;exitX=1;exitY=0.5;exitDx=0;exitDy=0;" parent="1" source="PGkATcvvUGbWVfut-UY--38" target="PGkATcvvUGbWVfut-UY--2" edge="1">
          <mxGeometry relative="1" as="geometry">
            <mxPoint x="520" y="695" as="sourcePoint" />
            <mxPoint x="735" y="520" as="targetPoint" />
          </mxGeometry>
        </mxCell>
      </root>
    </mxGraphModel>
  </diagram>
</mxfile>
